<svg width="32" height="32" viewBox="0 0 32 32" fill="none" xmlns="http://www.w3.org/2000/svg">
  <!-- Background circle -->
  <circle cx="16" cy="16" r="16" fill="#FCF6F1"/>

  <!-- Dog silhouette (simplified) -->
  <path d="M8 20C8 16 10 14 12 14C14 14 16 16 16 20C16 16 18 14 20 14C22 14 24 16 24 20C24 22 22 24 20 24C18 24 16 22 16 20C16 22 14 24 12 24C10 24 8 22 8 20Z" fill="#14263F"/>

  <!-- Dog ears -->
  <path d="M10 12C10 10 11 9 12 9C13 9 14 10 14 12C14 10 15 9 16 9C17 9 18 10 18 12C18 10 19 9 20 9C21 9 22 10 22 12L20 14C18 14 16 16 16 20C16 16 14 14 12 14L10 12Z" fill="#14263F"/>

  <!-- Dog nose -->
  <circle cx="16" cy="18" r="1" fill="#FF7F60"/>

  <!-- Small accent dots -->
  <circle cx="12" cy="16" r="0.5" fill="#FF7F60"/>
  <circle cx="20" cy="16" r="0.5" fill="#FF7F60"/>
</svg>
