<svg version="1.1" id="Layer_1" xmlns="http://www.w3.org/2000/svg" xmlns:xlink="http://www.w3.org/1999/xlink" x="0px" y="0px"
	 width="100%" viewBox="0 0 388 365" enable-background="new 0 0 388 365" xml:space="preserve">
<path fill="#19253D" opacity="1.000000" stroke="none" 
	d="
M210.000000,366.000000 
	C157.645767,366.000000 105.291542,366.000000 52.375530,365.843842 
	C51.542500,365.791809 51.271252,365.895905 51.000000,366.000000 
	C50.555553,366.000000 50.111111,366.000000 49.287624,365.631836 
	C43.867077,363.228546 38.825565,361.193390 33.828979,359.143433 
	C33.873901,359.128632 33.853771,359.221069 33.851082,358.860901 
	C32.242435,357.665985 30.636475,356.831177 28.682526,355.900452 
	C26.298199,354.102661 24.132471,352.532196 22.247795,350.676331 
	C13.811660,342.369171 8.340608,332.319611 5.390643,320.839600 
	C6.767757,319.451721 7.873100,318.211945 8.989092,316.986084 
	C8.999742,317.000000 8.975423,316.974518 9.229309,316.913605 
	C9.689883,316.584015 9.896570,316.315369 10.066862,316.037415 
	C10.030466,316.028137 10.042856,316.102234 10.303411,316.023621 
	C10.774157,315.664856 10.984345,315.384644 11.139908,315.100647 
	C11.085280,315.096832 11.101600,315.205139 11.368513,315.135315 
	C11.854110,314.785645 12.072793,314.505737 12.234359,314.232117 
	C12.177241,314.238373 12.236583,314.336792 12.576630,314.242676 
	C16.047873,311.204315 19.179068,308.260071 22.293907,305.252014 
	C22.277554,305.188171 22.235106,305.312958 22.490337,305.216187 
	C22.932478,304.816864 23.119385,304.514313 23.253750,304.227966 
	C23.201206,304.244232 23.295662,304.300568 23.589270,304.173126 
	C24.984379,302.742645 26.085878,301.439636 27.137280,300.122162 
	C27.087183,300.107727 27.137251,300.199188 27.490234,300.168213 
	C31.482477,295.076416 35.121738,290.015594 38.950043,284.656799 
	C40.486206,282.037689 41.833324,279.716522 43.395744,277.326019 
	C43.611042,277.256683 44.011257,277.043762 44.228367,276.929810 
	C44.716007,276.614441 44.908600,276.355164 45.258705,275.857697 
	C45.665344,275.121826 45.836533,274.566223 46.245361,273.838013 
	C46.663639,273.119263 46.844273,272.573090 47.259682,271.842712 
	C47.662533,271.098083 47.830612,270.537659 48.243351,269.816010 
	C48.660854,269.106842 48.833694,268.558868 49.260826,267.787140 
	C49.647606,266.908813 49.780090,266.254242 49.909595,265.441223 
	C49.906620,265.282776 50.110256,265.039795 50.311630,264.875427 
	C50.631947,264.390656 50.750889,264.070251 50.913754,263.821564 
	C50.957676,263.893311 50.807816,263.969818 51.106773,263.751648 
	C51.579811,262.827759 51.753891,262.122070 51.864105,261.319824 
	C51.800240,261.223267 51.964500,261.060059 52.340744,260.954132 
	C53.110153,259.404144 53.503319,257.960083 53.944221,256.164612 
	C55.611542,250.860245 57.231121,245.907318 58.922382,240.949966 
	C58.994064,240.945541 59.133869,240.978470 59.480019,240.904617 
	C61.221134,236.228226 62.616100,231.625671 64.286568,226.785706 
	C66.377869,220.039505 68.193665,213.530716 70.160782,206.661621 
	C73.855911,189.199326 77.399734,172.097336 80.969101,154.602112 
	C80.721489,152.493042 80.448334,150.777206 80.114487,148.769409 
	C80.023972,148.280899 79.994156,148.084335 80.070145,147.878128 
	C80.175949,147.868469 80.384071,147.911667 80.745667,147.744431 
	C81.283760,146.334183 81.460243,145.091187 81.463173,143.769714 
	C81.289619,143.691254 81.329514,143.312424 81.690453,143.302628 
	C82.602547,142.313004 83.334816,141.392227 83.676613,140.344116 
	C86.800819,130.764023 89.820114,121.149681 92.957672,111.574036 
	C93.809875,108.973167 94.959068,106.469612 96.059235,103.575966 
	C101.764458,96.396629 107.382416,89.562721 113.342468,82.716919 
	C114.537354,81.835678 115.390137,80.966316 116.462082,80.050888 
	C116.681244,80.004829 116.998688,79.688835 117.355530,79.705467 
	C118.646095,78.864914 119.579819,78.007729 120.794815,77.100174 
	C121.714722,76.646240 122.353348,76.242653 123.349480,75.870880 
	C125.743713,74.913269 127.780434,73.923843 130.260727,72.961624 
	C138.437881,72.162605 146.154968,70.908455 153.908875,70.609932 
	C165.691635,70.156311 177.505783,70.124153 189.294586,70.409439 
	C194.176270,70.527580 199.028305,71.919960 203.891296,72.747780 
	C209.692795,73.735359 215.491592,74.738968 221.207428,75.786316 
	C221.123291,75.836998 221.249908,75.686813 221.204544,76.019943 
	C222.499207,76.883560 223.839218,77.414055 225.392609,77.963943 
	C225.605957,77.983330 226.004272,78.141212 226.152924,78.334351 
	C226.561905,78.731102 226.852570,78.872421 227.392517,78.973251 
	C227.611496,78.995071 227.995300,79.210510 228.060577,79.508698 
	C228.757736,80.205063 229.389587,80.603249 230.155807,81.228394 
	C230.776855,81.630112 231.263550,81.804878 231.937622,82.314560 
	C233.037674,82.896935 233.950333,83.144379 234.940186,83.585472 
	C235.218796,83.999092 235.468567,84.103737 235.839630,84.437233 
	C238.575516,87.282684 241.238449,89.783974 243.946899,92.501854 
	C243.992416,92.718452 244.341278,92.990913 244.458984,93.272751 
	C245.551575,94.843147 246.526443,96.131699 247.700836,97.339081 
	C247.900330,97.257912 247.518372,97.457100 247.455505,97.819939 
	C248.425232,99.442169 249.714615,100.568588 250.447205,101.983345 
	C254.161087,109.155472 259.968964,112.899673 268.236023,113.380081 
	C269.005829,113.711418 269.570251,113.832954 270.361359,113.974091 
	C270.588074,113.993706 271.021545,114.132370 271.323120,114.384079 
	C282.793671,115.763939 293.971741,116.810524 305.128296,118.050766 
	C311.826355,118.795380 318.490845,119.842224 325.146790,120.778412 
	C325.123199,120.803604 325.139008,120.737053 325.224274,121.002029 
	C325.594086,121.493851 325.878662,121.720688 326.106903,121.949509 
	C326.050598,121.951500 326.059723,121.839203 326.165314,122.093033 
	C326.548401,122.577789 326.825897,122.808731 327.242004,123.230392 
	C327.615570,123.632439 327.821716,123.868919 327.996765,124.589294 
	C328.034515,130.717880 328.074524,136.387726 328.095825,142.458694 
	C327.992126,143.916183 327.907135,144.972519 327.642731,146.174011 
	C327.272705,146.565613 327.131134,146.837601 327.032745,147.353180 
	C327.026886,147.571228 326.949127,148.000488 326.683594,148.270966 
	C326.378784,149.796616 326.339539,151.051804 326.291748,152.226440 
	C326.283234,152.145905 326.440643,152.184067 326.091614,152.328033 
	C324.197021,158.490295 322.651428,164.508606 321.149933,170.661652 
	C321.194031,170.796387 320.981812,170.984406 320.742981,171.167252 
	C320.342560,171.921600 320.181030,172.493088 319.905060,173.400345 
	C317.801178,177.780411 315.811737,181.824707 313.876404,185.899231 
	C313.930481,185.929443 313.867462,185.822739 313.539978,185.890991 
	C312.605438,186.967758 311.998352,187.976273 311.151306,189.256683 
	C303.079132,197.988678 293.779602,203.550873 281.563843,204.163132 
	C279.252838,204.438477 277.365417,204.785233 275.463440,205.006897 
	C267.118469,205.979507 258.769287,206.915955 250.036652,207.765305 
	C237.094833,210.055206 225.690659,214.786865 216.224060,224.077942 
	C215.630417,224.776627 215.300461,225.387665 214.732391,226.163696 
	C214.302948,226.867645 214.111618,227.406586 213.689575,228.162643 
	C213.322617,228.778412 213.186356,229.177063 213.097015,229.683014 
	C213.143936,229.790314 212.974823,229.952393 212.627563,230.038269 
	C211.838913,231.401733 211.397507,232.679352 210.652191,234.143707 
	C204.869339,246.757217 202.393188,259.532745 205.921341,273.222443 
	C205.985443,273.446716 206.035629,273.910553 206.025818,274.373260 
	C207.046005,285.234711 208.076019,295.633484 209.301224,306.237610 
	C209.861771,306.422455 210.227097,306.401917 210.616913,306.574402 
	C210.641403,306.767456 210.273056,306.893036 210.190887,307.359436 
	C210.403442,314.111298 210.993042,320.399628 210.931549,326.681580 
	C210.803253,339.789490 210.330963,352.894073 210.000000,366.000000 
M160.294662,214.714493 
	C160.517502,214.439377 160.740326,214.164261 160.965363,213.964630 
	C160.965363,213.964630 160.892639,213.944244 161.549042,213.881226 
	C161.896988,213.404663 162.244949,212.928116 162.675888,212.707108 
	C162.675888,212.707108 162.529282,212.481934 163.200317,212.683121 
	C164.468735,210.879898 165.737152,209.076675 167.497971,207.016617 
	C167.669907,206.947952 167.841827,206.879288 168.520035,206.881760 
	C168.605423,206.593323 168.690826,206.304886 169.002151,205.399979 
	C169.414536,204.633499 169.826920,203.867004 170.718826,202.854568 
	C171.057251,202.237473 171.395676,201.620377 172.014191,200.651398 
	C172.014191,200.651398 172.079849,200.206467 172.677582,199.882660 
	C173.072723,198.919235 173.467865,197.955826 174.021500,196.595978 
	C174.021500,196.595978 174.056488,196.170471 174.570862,195.966125 
	C174.673935,195.646698 174.777008,195.327286 175.099670,194.439484 
	C175.449905,193.953735 175.800140,193.467987 176.843033,192.854095 
	C177.888168,190.683334 179.235092,188.604614 179.929642,186.326950 
	C184.554749,171.159882 183.222015,155.965866 179.705750,140.831955 
	C179.382843,139.442200 178.037094,138.290085 177.027954,136.511581 
	C176.967987,136.343887 176.908020,136.176193 176.898300,135.232407 
	C176.588882,133.521255 176.279465,131.810089 176.004242,129.252197 
	C174.882950,124.830040 173.967606,120.340950 172.560760,116.011581 
	C171.756378,113.536217 170.151993,111.320831 168.527802,108.497192 
	C167.645111,107.339684 166.762421,106.182175 165.135696,105.269875 
	C164.779144,105.966377 164.122787,106.658508 164.112549,107.360069 
	C164.013412,114.151436 164.236801,120.953148 163.959457,127.735184 
	C163.231171,145.543579 165.927704,163.474762 162.091949,181.178833 
	C161.982086,181.685959 162.555237,182.341064 162.909622,183.395004 
	C162.909622,183.395004 162.947754,183.871811 162.389420,184.278503 
	C160.422379,187.636353 158.455338,190.994217 156.419479,194.430191 
	C156.419479,194.430191 156.345734,194.503693 155.872574,194.903168 
	C154.903259,196.234543 153.933945,197.565918 152.360413,199.165970 
	C150.600632,200.785309 148.840851,202.404648 146.382889,204.159500 
	C145.961990,204.908264 145.541092,205.657013 145.093338,206.721283 
	C145.093338,206.721283 145.009796,207.026703 144.481903,207.111664 
	C144.267639,207.383987 144.053360,207.656326 143.922318,207.939072 
	C143.922318,207.939072 143.914474,207.855560 143.339188,207.952271 
	C142.952164,207.986984 142.565155,208.021683 141.477417,208.008743 
	C140.655075,208.616348 139.832733,209.223938 138.583572,209.983704 
	C138.583572,209.983704 138.133682,210.037872 137.491959,210.059616 
	C137.008484,210.428329 136.525009,210.797043 136.038132,211.069305 
	C136.038132,211.069305 136.134018,211.080292 135.417465,211.031265 
	C134.607300,211.676117 133.797119,212.320969 132.721176,213.188309 
	C132.721176,213.188309 132.378464,213.136490 131.515411,213.050919 
	C128.307587,213.753952 125.032364,214.243073 121.912758,215.226074 
	C119.306984,216.047165 116.883423,217.446503 114.379173,218.589752 
	C116.925339,220.052094 119.471504,221.514420 122.840820,223.025345 
	C126.568382,223.662857 130.361160,225.064651 134.007782,224.753464 
	C139.102692,224.318680 144.950516,225.897415 149.154953,220.829132 
	C149.154953,220.829132 149.363861,220.936707 149.960434,220.761719 
	C150.300247,220.542755 150.640045,220.323792 151.297516,219.875381 
	C151.297516,219.875381 151.688126,219.906876 152.378693,219.896545 
	C152.896744,219.511703 153.414780,219.126862 153.926880,218.918259 
	C153.926880,218.918259 153.752502,218.891968 154.255981,218.725754 
	C154.508759,218.491409 154.761520,218.257065 155.153488,217.847946 
	C155.153488,217.847946 155.350723,217.952881 155.989868,217.741684 
	C156.317169,217.455841 156.644485,217.169998 157.137161,216.438660 
	C157.555130,216.281708 157.973083,216.124771 159.024063,215.718399 
	C159.338882,215.407104 159.653687,215.095810 159.954117,214.947403 
	C159.954117,214.947403 159.792862,214.920151 160.294662,214.714493 
z"/>
<path fill="#F8EEE4" opacity="1.000000" stroke="none" 
	d="
M244.341278,92.990913 
	C244.341278,92.990913 243.992416,92.718452 243.941315,92.139359 
	C241.182373,89.071205 238.474518,86.582130 235.766663,84.093063 
	C235.468567,84.103737 235.218796,83.999092 234.936646,83.239700 
	C233.900803,81.795128 232.945663,80.889969 231.748032,79.736877 
	C230.601990,79.381004 229.698410,79.273056 228.813156,79.142548 
	C228.831467,79.119987 228.807205,79.177399 228.803711,78.826096 
	C226.919434,76.990028 225.252472,74.988411 223.122055,74.106888 
	C211.828415,69.433815 200.049606,66.933723 187.769745,66.949188 
	C185.980652,66.951447 184.185410,66.151726 182.402405,66.187767 
	C173.210709,66.373505 163.990646,67.308472 154.841171,66.827621 
	C145.621307,66.343086 137.028870,68.308250 128.551041,71.210236 
	C126.419601,71.939835 124.830376,74.253418 122.991966,75.839066 
	C122.353348,76.242653 121.714722,76.646240 120.411232,77.070724 
	C118.830475,77.957367 117.914581,78.823097 116.998688,79.688835 
	C116.998688,79.688835 116.681244,80.004829 116.124306,80.055244 
	C114.711700,80.980042 113.856041,81.854431 113.000366,82.728806 
	C107.382416,89.562721 101.764458,96.396629 95.851120,103.865311 
	C93.073692,108.680176 90.591644,112.860260 87.817398,117.243713 
	C85.340744,124.243073 82.947426,130.981888 81.064285,137.860367 
	C80.187439,141.063156 80.300163,144.536880 79.964333,147.887787 
	C79.994156,148.084335 80.023972,148.280899 80.019272,148.805237 
	C79.984741,149.133011 79.886139,148.955185 79.521996,149.034241 
	C77.898094,153.684097 76.416672,158.207199 75.421021,162.834808 
	C72.669548,175.623093 70.070602,188.445251 67.581100,201.286942 
	C67.365944,202.396835 68.404503,203.749756 68.919998,205.245056 
	C68.992149,205.674561 69.005013,205.848785 68.839661,206.189514 
	C68.661438,206.356003 68.308876,206.693085 67.917099,206.521454 
	C66.676826,206.291367 65.828339,206.232910 64.517883,206.102173 
	C43.696949,206.020447 23.337973,206.011017 2.732045,205.989197 
	C2.485095,205.976822 1.990578,205.979065 2.059358,205.568375 
	C2.391242,195.751389 2.692508,186.345657 2.832778,176.937531 
	C2.842269,176.300934 1.639150,175.646271 1.000000,175.000000 
	C1.000000,172.629440 1.000000,170.258896 1.385660,167.333282 
	C1.960950,159.719528 2.161326,152.661011 2.283397,145.601135 
	C2.286733,145.408218 1.446736,145.200699 1.000000,145.000000 
	C1.000000,142.958328 1.000000,140.916672 1.385645,138.326569 
	C2.143363,137.269943 2.834068,136.765366 2.839929,136.252960 
	C2.934569,127.978386 2.997423,119.702042 2.883135,111.428642 
	C2.871835,110.610580 1.656498,109.809151 1.000000,109.000000 
	C1.000000,108.250000 1.000000,107.500000 1.385596,106.263885 
	C2.143213,105.270386 2.832132,104.767494 2.839403,104.254929 
	C2.937879,97.312088 3.007167,90.366722 2.881777,83.425629 
	C2.866970,82.606018 1.656312,81.808022 1.000000,81.000000 
	C1.000000,74.978844 1.000000,68.957695 1.378639,62.362709 
	C2.165239,60.952553 2.882465,60.134418 2.932916,59.277050 
	C3.394254,51.437046 5.076081,44.068657 8.739264,36.934319 
	C16.660583,21.506937 28.368902,10.565924 44.497665,4.233829 
	C46.164696,3.579357 47.507015,2.097792 49.000000,1.000000 
	C143.687561,1.000000 238.375122,1.000000 333.618866,1.355888 
	C338.211609,3.455811 342.311829,5.067034 346.273712,6.966774 
	C363.871643,15.405043 376.698120,28.833824 380.320435,47.890888 
	C383.231262,63.204605 382.376526,79.259941 382.858765,94.996429 
	C383.045868,101.102943 382.005859,107.240334 382.060608,113.358864 
	C382.237610,133.130814 382.833679,152.899765 382.926727,172.671463 
	C382.978821,183.737030 382.355957,194.805786 381.566071,205.892517 
	C349.561859,205.924500 318.028656,205.961472 286.495819,205.874252 
	C284.989258,205.870087 283.485718,204.767853 281.980774,204.176971 
	C293.779602,203.550873 303.079132,197.988678 311.465851,189.191284 
	C312.636017,187.843567 313.251740,186.833145 313.867462,185.822739 
	C313.867462,185.822739 313.930481,185.929443 314.229492,185.878906 
	C317.472717,180.866669 320.431213,175.913116 323.296204,170.906052 
	C323.387451,170.746597 322.518097,170.037521 322.074890,169.194885 
	C322.757294,166.873611 323.461395,164.942123 324.511810,162.916901 
	C325.770111,160.460632 326.992645,158.167130 327.535828,155.722702 
	C329.164886,148.391617 330.990143,141.050034 331.771210,133.610947 
	C332.088562,130.588333 329.909454,127.303596 328.897491,124.127380 
	C328.928711,124.116623 328.886658,124.167267 328.909424,123.780754 
	C327.597443,122.269318 326.262726,121.144394 324.647125,119.982864 
	C323.914764,119.616173 323.463226,119.286102 322.930145,118.608055 
	C320.694336,117.180557 318.605621,115.336784 316.375214,115.145462 
	C301.809814,113.896019 287.196655,113.199448 272.634064,111.923416 
	C263.814453,111.150612 255.786087,108.491997 251.245499,99.761414 
	C250.666580,98.648254 248.792465,98.208710 247.518372,97.457100 
	C247.518372,97.457100 247.900330,97.257912 247.803894,96.978973 
	C246.585388,95.463669 245.463333,94.227295 244.341278,92.990913 
z"/>
<path fill="#EE8669" opacity="1.000000" stroke="none" 
	d="
M216.487732,223.990265 
	C225.690659,214.786865 237.094833,210.055206 250.551102,207.798096 
	C261.547577,207.624146 271.643860,207.086334 281.741791,207.052612 
	C314.787720,206.942245 347.834320,207.015335 380.920898,207.483521 
	C380.974274,240.366226 380.972412,272.783325 381.038452,305.200287 
	C381.042328,307.117310 381.592133,309.033173 381.919922,311.348083 
	C380.652039,316.636963 379.665100,321.638214 377.980804,326.392365 
	C375.272766,334.036224 371.686981,341.288605 365.392273,346.733154 
	C360.536041,350.933441 355.703033,355.206238 350.497192,358.941528 
	C346.632782,361.714294 342.186890,363.676666 338.000000,366.000000 
	C296.645782,366.000000 255.291550,366.000000 213.475677,365.566650 
	C213.332184,362.837555 213.988220,360.531067 213.915237,358.247864 
	C213.310776,339.333984 213.698578,320.294922 211.544830,301.551270 
	C209.532272,284.036346 207.428986,266.640472 208.252213,248.725922 
	C208.993332,245.276962 209.474533,242.100220 209.973770,238.952271 
	C209.991821,238.981079 209.924377,238.989761 210.197754,238.769928 
	C210.616943,237.875229 210.762756,237.200348 210.879837,236.398224 
	C210.851105,236.270981 211.023270,236.074936 211.259613,235.861267 
	C211.628754,235.044952 211.761536,234.442276 211.921814,233.886963 
	C211.949326,233.934296 211.848892,233.977921 212.137527,233.769073 
	C212.589905,232.881821 212.753647,232.203445 212.889832,231.401428 
	C212.862274,231.277802 213.035309,231.092819 213.265396,230.896454 
	C213.671783,230.138153 213.848099,229.576218 214.013641,229.007843 
	C214.002899,229.001389 214.021332,229.020081 214.246216,228.874893 
	C214.599609,228.404144 214.728149,228.078598 214.884140,227.820099 
	C214.911591,227.887146 214.770157,227.918732 215.057068,227.777969 
	C215.539673,227.054428 215.735367,226.471649 215.947586,225.923187 
	C215.964111,225.957504 215.888458,225.966278 216.135925,225.819748 
	C216.547272,225.334961 216.711151,224.996689 216.794083,224.482178 
	C216.713135,224.305939 216.487732,223.990265 216.487732,223.990265 
z"/>
<path fill="#FBF6F1" opacity="1.000000" stroke="none" 
	d="
M338.468658,366.000000 
	C342.186890,363.676666 346.632782,361.714294 350.497192,358.941528 
	C355.703033,355.206238 360.536041,350.933441 365.392273,346.733154 
	C371.686981,341.288605 375.272766,334.036224 377.980804,326.392365 
	C379.665100,321.638214 380.652039,316.636963 381.989136,311.124512 
	C382.026276,310.502411 382.034210,310.034485 382.230774,309.673950 
	C382.554047,308.331085 382.790405,307.348907 382.791565,306.366425 
	C382.829010,274.324310 382.850922,242.282150 382.832031,210.240005 
	C382.831360,209.131180 382.389343,208.022614 382.156128,206.890228 
	C382.159180,206.866531 382.160400,206.818649 382.171021,206.576874 
	C382.181671,206.335083 382.037201,205.873108 382.037170,205.873108 
	C382.355957,194.805786 382.978821,183.737030 382.926727,172.671463 
	C382.833679,152.899765 382.237610,133.130814 382.060608,113.358864 
	C382.005859,107.240334 383.045868,101.102943 382.858765,94.996429 
	C382.376526,79.259941 383.231262,63.204605 380.320435,47.890888 
	C376.698120,28.833824 363.871643,15.405043 346.273712,6.966774 
	C342.311829,5.067034 338.211609,3.455811 334.087524,1.355888 
	C352.316284,1.000000 370.632599,1.000000 388.947144,1.000004 
	C388.945435,122.666679 388.945435,244.333344 388.945435,366.000000 
	C372.239655,366.000000 355.588501,366.000000 338.468658,366.000000 
z"/>
<path fill="#FAF6F0" opacity="1.000000" stroke="none" 
	d="
M48.531342,1.000000 
	C47.507015,2.097792 46.164696,3.579357 44.497665,4.233829 
	C28.368902,10.565924 16.660583,21.506937 8.739264,36.934319 
	C5.076081,44.068657 3.394254,51.437046 2.932916,59.277050 
	C2.882465,60.134418 2.165239,60.952553 1.378639,61.894440 
	C1.000000,41.748623 1.000000,21.497244 1.000000,1.000000 
	C16.686705,1.000000 32.374695,1.000000 48.531342,1.000000 
z"/>
<path fill="#F9F6F2" opacity="1.000000" stroke="none" 
	d="
M5.118871,320.987671 
	C8.340608,332.319611 13.811660,342.369171 22.247795,350.676331 
	C24.132471,352.532196 26.298199,354.102661 28.831520,356.193054 
	C30.836924,357.461365 32.345348,358.341217 33.853775,359.221069 
	C33.853771,359.221069 33.873901,359.128632 34.018494,359.435547 
	C38.442051,361.828308 42.721024,363.914154 47.000000,366.000000 
	C31.730835,366.000000 16.461668,366.000000 1.000000,366.000000 
	C1.000000,346.646210 1.000000,327.291748 1.261665,307.463562 
	C1.871296,307.013153 2.219262,307.036530 2.645099,307.373474 
	C2.730524,308.116669 2.738078,308.546234 2.629041,309.092224 
	C2.388649,309.558899 2.494863,309.830414 2.892636,310.382874 
	C3.041978,311.466461 3.129776,312.190338 3.175017,313.268372 
	C3.474002,314.744568 3.815545,315.866577 4.015790,317.273865 
	C4.289284,318.701996 4.704077,319.844849 5.118871,320.987671 
z"/>
<path fill="#F6DACC" opacity="1.000000" stroke="none" 
	d="
M2.567228,307.059875 
	C2.219262,307.036530 1.871296,307.013153 1.261665,306.994904 
	C1.000000,273.979095 1.000000,240.958206 1.209014,207.345459 
	C1.675662,206.544800 1.866513,206.286621 1.990578,205.979065 
	C1.990578,205.979065 2.485095,205.976822 2.674169,206.224854 
	C2.863244,206.472885 2.894294,206.957367 2.861289,207.428680 
	C2.838445,232.655106 2.873344,257.410248 2.844915,282.165314 
	C2.835385,290.463623 2.664409,298.761688 2.567228,307.059875 
z"/>
<path fill="#D59282" opacity="1.000000" stroke="none" 
	d="
M207.992294,248.998108 
	C207.428986,266.640472 209.532272,284.036346 211.544830,301.551270 
	C213.698578,320.294922 213.310776,339.333984 213.915237,358.247864 
	C213.988220,360.531067 213.332184,362.837555 213.007019,365.566650 
	C213.000000,366.000000 212.500000,366.000000 212.178680,365.537842 
	C212.103073,359.789581 212.729401,354.488464 212.521057,349.220337 
	C211.962753,335.103699 211.046890,321.001160 210.273056,306.893036 
	C210.273056,306.893036 210.641403,306.767456 210.605408,306.545288 
	C210.569412,306.323151 210.595520,306.264099 210.595596,305.792206 
	C210.395187,303.691498 210.228592,302.057709 209.988586,300.434723 
	C208.680908,291.591858 207.355164,282.751678 206.035629,273.910553 
	C206.035629,273.910553 205.985443,273.446716 206.025375,272.761200 
	C206.437637,264.385193 206.809982,256.694702 207.384827,249.002747 
	C207.587311,249.001251 207.992294,248.998108 207.992294,248.998108 
z"/>
<path fill="#301D2A" opacity="1.000000" stroke="none" 
	d="
M210.190887,307.359436 
	C211.046890,321.001160 211.962753,335.103699 212.521057,349.220337 
	C212.729401,354.488464 212.103073,359.789581 211.928680,365.537842 
	C211.555557,366.000000 211.111099,366.000000 210.333344,366.000000 
	C210.330963,352.894073 210.803253,339.789490 210.931549,326.681580 
	C210.993042,320.399628 210.403442,314.111298 210.190887,307.359436 
z"/>
<path fill="#FAF6F0" opacity="1.000000" stroke="none" 
	d="
M2.059358,205.568375 
	C1.866513,206.286621 1.675662,206.544800 1.209014,206.876801 
	C1.000000,196.645767 1.000000,186.291550 1.000000,175.468658 
	C1.639150,175.646271 2.842269,176.300934 2.832778,176.937531 
	C2.692508,186.345657 2.391242,195.751389 2.059358,205.568375 
z"/>
<path fill="#FAF6F0" opacity="1.000000" stroke="none" 
	d="
M1.000000,109.468658 
	C1.656498,109.809151 2.871835,110.610580 2.883135,111.428642 
	C2.997423,119.702042 2.934569,127.978386 2.839929,136.252960 
	C2.834068,136.765366 2.143363,137.269943 1.385645,137.889069 
	C1.000000,128.645767 1.000000,119.291542 1.000000,109.468658 
z"/>
<path fill="#FAF6F0" opacity="1.000000" stroke="none" 
	d="
M1.000000,81.468651 
	C1.656312,81.808022 2.866970,82.606018 2.881777,83.425629 
	C3.007167,90.366722 2.937879,97.312088 2.839403,104.254929 
	C2.832132,104.767494 2.143213,105.270386 1.385596,105.888885 
	C1.000000,97.979103 1.000000,89.958199 1.000000,81.468651 
z"/>
<path fill="#FAF6F0" opacity="1.000000" stroke="none" 
	d="
M1.000000,145.468567 
	C1.446736,145.200699 2.286733,145.408218 2.283397,145.601135 
	C2.161326,152.661011 1.960950,159.719528 1.385660,166.889130 
	C1.000000,159.979050 1.000000,152.958099 1.000000,145.468567 
z"/>
<path fill="#0F1423" opacity="1.000000" stroke="none" 
	d="
M47.333328,366.000000 
	C42.721024,363.914154 38.442051,361.828308 33.973572,359.450317 
	C38.825565,361.193390 43.867077,363.228546 48.954292,365.631836 
	C48.555553,366.000000 48.111111,366.000000 47.333328,366.000000 
z"/>
<path fill="#0F1423" opacity="1.000000" stroke="none" 
	d="
M51.250000,366.000000 
	C51.271252,365.895905 51.542500,365.791809 51.906872,365.843842 
	C52.000000,366.000000 51.500000,366.000000 51.250000,366.000000 
z"/>
<path fill="#EE8669" opacity="1.000000" stroke="none" 
	d="
M4.157089,316.988556 
	C3.815545,315.866577 3.474002,314.744568 3.404480,312.935242 
	C3.781596,310.431915 3.976959,308.615967 3.978393,306.799896 
	C4.004385,273.870819 4.007024,240.941711 4.482356,208.007477 
	C25.310135,208.006332 45.670200,208.010315 66.027756,208.457520 
	C66.068375,210.984711 66.111504,213.068665 66.152191,215.102295 
	C66.149757,215.051987 66.248383,215.072586 65.911484,215.264038 
	C65.092560,218.062836 64.610535,220.670181 64.129791,223.477661 
	C64.131065,223.677795 63.938480,224.028717 63.613182,224.222107 
	C62.901104,226.421417 62.514328,228.427307 62.145454,230.582184 
	C62.163357,230.731171 61.981026,230.969528 61.724983,231.222168 
	C61.340771,232.172775 61.212593,232.870728 61.143951,233.648331 
	C61.203487,233.727966 61.071125,233.876373 60.811150,234.120178 
	C60.389015,235.273254 60.226849,236.182510 60.050125,237.057602 
	C60.035561,237.023438 60.108894,237.011658 59.831429,237.215637 
	C59.365265,238.301849 59.176571,239.184067 58.993340,240.299286 
	C58.998806,240.532303 59.133869,240.978470 59.133869,240.978470 
	C59.133869,240.978470 58.994064,240.945541 58.637371,241.152893 
	C56.159817,247.220993 54.038952,253.081757 51.629173,259.140656 
	C50.853012,260.864136 50.365761,262.389496 49.664253,264.127869 
	C49.312077,264.916931 49.174156,265.492981 49.020077,266.042786 
	C49.003922,266.016541 49.062515,265.998413 48.807621,266.177734 
	C48.388081,266.939148 48.223434,267.521210 48.043365,268.069397 
	C48.027935,268.035522 48.098625,268.012207 47.834785,268.178955 
	C47.395420,268.923126 47.219891,269.500549 47.027184,270.048218 
	C47.010010,270.018494 47.077435,270.005554 46.816216,270.176697 
	C46.386497,270.930054 46.217999,271.512238 46.035889,272.060547 
	C46.022274,272.026611 46.093220,272.008911 45.832390,272.177673 
	C45.390656,272.920807 45.209747,273.495148 45.014977,274.039856 
	C45.001110,274.010223 45.065628,273.999481 44.811295,274.169373 
	C44.372219,274.904144 44.187477,275.469025 43.994530,276.015808 
	C43.986324,275.997681 44.025158,275.989105 43.788288,276.156403 
	C43.427757,276.680908 43.304092,277.038147 43.180435,277.395355 
	C41.833324,279.716522 40.486206,282.037689 38.621811,284.721008 
	C34.448772,290.121826 30.793011,295.160492 27.137249,300.199188 
	C27.137251,300.199188 27.087183,300.107727 26.772575,300.115540 
	C25.403866,301.515747 24.349762,302.908173 23.295662,304.300568 
	C23.295662,304.300568 23.201206,304.244232 22.974514,304.294312 
	C22.576920,304.667236 22.406015,304.990112 22.235107,305.312958 
	C22.235106,305.312958 22.277554,305.188171 21.931030,305.189026 
	C18.468531,308.238861 15.352556,311.287842 12.236583,314.336792 
	C12.236583,314.336792 12.177241,314.238373 11.955822,314.279510 
	C11.523470,314.615479 11.312536,314.910309 11.101601,315.205139 
	C11.101600,315.205139 11.085280,315.096832 10.880886,315.178894 
	C10.465277,315.541351 10.254064,315.821808 10.042853,316.102234 
	C10.042856,316.102234 10.030466,316.028137 9.825804,316.119385 
	C9.405903,316.465271 9.190664,316.719879 8.975424,316.974518 
	C8.975423,316.974518 8.999742,317.000000 8.665979,317.011597 
	C6.940508,317.011658 5.548800,317.000122 4.157089,316.988556 
z"/>
<path fill="#F6EEE5" opacity="1.000000" stroke="none" 
	d="
M174.056488,196.170471 
	C174.056488,196.170471 174.021500,196.595978 173.605927,196.883453 
	C172.820175,198.182770 172.450012,199.194626 172.079849,200.206467 
	C172.079849,200.206467 172.014191,200.651398 171.562775,200.837021 
	C170.820663,201.715271 170.529984,202.407883 170.239288,203.100510 
	C169.826920,203.867004 169.414536,204.633499 168.732391,205.809875 
	C168.267532,206.382202 168.117905,206.579147 168.013733,206.810623 
	C167.841827,206.879288 167.669907,206.947952 166.930389,207.189072 
	C165.084946,209.068329 163.807114,210.775131 162.529266,212.481934 
	C162.529282,212.481934 162.675888,212.707108 162.382095,212.724335 
	C161.689743,213.142471 161.291199,213.543350 160.892639,213.944244 
	C160.892639,213.944244 160.965363,213.964630 160.754120,213.975098 
	C160.542862,213.985550 160.115234,214.037643 159.732925,214.028717 
	C157.575333,215.376038 155.800049,216.732269 153.963318,218.291611 
	C153.901871,218.494720 153.752502,218.891968 153.752502,218.891968 
	C153.752502,218.891968 153.926880,218.918259 153.608032,218.911804 
	C152.755508,219.239197 152.221817,219.573044 151.688126,219.906876 
	C151.688126,219.906876 151.297516,219.875381 150.897369,219.962311 
	C150.497208,220.049225 150.013031,220.010071 149.767883,219.772705 
	C147.622818,219.875565 145.703735,220.133453 143.826385,220.570587 
	C136.694565,222.231186 129.722672,221.931229 122.610992,219.335297 
	C123.579674,218.050339 124.291214,217.106476 125.302246,216.048874 
	C126.019745,215.853409 126.437752,215.771667 127.018379,215.933685 
	C127.789116,215.799179 128.397232,215.420883 129.106171,214.924225 
	C129.206970,214.805847 129.513062,214.860657 129.915558,214.892090 
	C131.546829,214.302841 132.775604,213.682159 134.128082,212.938293 
	C134.251785,212.815109 134.600418,212.833847 134.986588,212.870804 
	C136.917572,211.957214 138.462372,211.006683 140.126190,209.935242 
	C140.245209,209.814331 140.580780,209.864655 140.968079,209.890778 
	C142.208405,209.229767 143.061432,208.542664 143.914474,207.855560 
	C143.914474,207.855560 143.922318,207.939072 144.119186,207.844879 
	C144.547302,207.509338 144.778549,207.268021 145.009796,207.026703 
	C145.009796,207.026703 145.093338,206.721283 145.363037,206.459534 
	C145.981323,206.087479 146.329910,205.977173 147.035553,205.872116 
	C149.262741,204.254883 151.132889,202.632416 153.313354,200.843414 
	C154.531036,198.619156 155.438385,196.561432 156.345734,194.503693 
	C156.345734,194.503693 156.419479,194.430191 156.816010,194.533600 
	C162.175446,192.674149 162.038834,187.994476 162.947754,183.871811 
	C162.947754,183.871811 162.909622,183.395004 162.959961,183.123444 
	C163.010300,182.851898 163.109482,183.041550 163.459503,182.941803 
	C164.873184,178.616776 166.751709,174.411179 166.854355,170.162689 
	C167.227234,154.727661 166.840286,139.275070 167.139938,123.836868 
	C167.203888,120.542236 168.947372,117.280190 170.069275,114.288071 
	C170.259094,115.002090 170.296768,115.431160 170.096649,116.071594 
	C171.488907,122.062622 173.061096,127.859871 174.807846,133.604050 
	C175.088516,134.526993 176.148376,135.212967 176.848038,136.008499 
	C176.908020,136.176193 176.967987,136.343887 177.022430,137.004837 
	C177.016907,137.498093 176.994095,137.991440 176.749359,138.250153 
	C176.972214,139.372330 177.439789,140.235779 177.755219,141.325104 
	C177.446396,141.459259 177.289719,141.367523 177.065140,141.493500 
	C177.050156,141.583542 177.103073,141.455872 177.599548,141.484344 
	C178.109909,141.946777 178.176743,142.253052 177.966187,142.899796 
	C178.126053,149.494827 179.163757,155.778381 178.863815,161.997406 
	C178.379364,172.042557 177.014694,182.045242 176.017151,192.300110 
	C176.012527,192.534363 176.150375,192.982224 176.150375,192.982224 
	C175.800140,193.467987 175.449905,193.953735 174.796967,194.873505 
	C174.269455,195.555130 174.123535,195.842789 174.056488,196.170471 
z"/>
<path fill="#EFEEEF" opacity="1.000000" stroke="none" 
	d="
M123.349480,75.870880 
	C124.830376,74.253418 126.419601,71.939835 128.551041,71.210236 
	C137.028870,68.308250 145.621307,66.343086 154.841171,66.827621 
	C163.990646,67.308472 173.210709,66.373505 182.402405,66.187767 
	C184.185410,66.151726 185.980652,66.951447 187.769745,66.949188 
	C200.049606,66.933723 211.828415,69.433815 223.122055,74.106888 
	C225.252472,74.988411 226.919434,76.990028 228.600128,78.819168 
	C228.400009,79.163536 227.995300,79.210510 227.995300,79.210510 
	C227.995300,79.210510 227.611496,78.995071 227.271896,78.733093 
	C226.622955,78.361145 226.313614,78.251175 226.004272,78.141212 
	C226.004272,78.141212 225.605957,77.983330 225.241150,77.663132 
	C223.667542,76.790894 222.458725,76.238853 221.249908,75.686813 
	C221.249908,75.686813 221.123291,75.836998 220.971451,75.510544 
	C217.873627,74.111183 215.004379,72.689476 211.969254,72.021751 
	C191.642395,67.549919 171.015228,67.434830 150.405640,68.735390 
	C143.482056,69.172302 136.676605,71.481163 129.817154,72.934418 
	C127.780434,73.923843 125.743713,74.913269 123.349480,75.870880 
z"/>
<path fill="#DD9C8B" opacity="1.000000" stroke="none" 
	d="
M381.566101,205.892517 
	C382.037201,205.873108 382.181671,206.335083 381.850525,206.624756 
	C381.306458,206.948898 381.093567,206.983383 380.880646,207.017883 
	C347.834320,207.015335 314.787720,206.942245 281.741791,207.052612 
	C271.643860,207.086334 261.547577,207.624146 250.936096,207.898315 
	C258.769287,206.915955 267.118469,205.979507 275.463440,205.006897 
	C277.365417,204.785233 279.252838,204.438477 281.563843,204.163132 
	C283.485718,204.767853 284.989258,205.870087 286.495819,205.874252 
	C318.028656,205.961472 349.561859,205.924500 381.566101,205.892517 
z"/>
<path fill="#F0EFEF" opacity="1.000000" stroke="none" 
	d="
M247.455505,97.819939 
	C248.792465,98.208710 250.666580,98.648254 251.245499,99.761414 
	C255.786087,108.491997 263.814453,111.150612 272.634064,111.923416 
	C287.196655,113.199448 301.809814,113.896019 316.375214,115.145462 
	C318.605621,115.336784 320.694336,117.180557 322.533264,118.586090 
	C311.912567,117.611259 301.627136,116.110931 291.294769,115.080780 
	C284.572357,114.410545 277.781647,114.424774 271.021545,114.132370 
	C271.021545,114.132370 270.588074,113.993706 270.222717,113.684547 
	C269.248413,113.307022 268.639496,113.238647 268.030579,113.170280 
	C259.968964,112.899673 254.161087,109.155472 250.447205,101.983345 
	C249.714615,100.568588 248.425232,99.442169 247.455505,97.819939 
z"/>
<path fill="#151926" opacity="1.000000" stroke="none" 
	d="
M130.260727,72.961624 
	C136.676605,71.481163 143.482056,69.172302 150.405640,68.735390 
	C171.015228,67.434830 191.642395,67.549919 211.969254,72.021751 
	C215.004379,72.689476 217.873627,74.111183 221.055573,75.459854 
	C215.491592,74.738968 209.692795,73.735359 203.891296,72.747780 
	C199.028305,71.919960 194.176270,70.527580 189.294586,70.409439 
	C177.505783,70.124153 165.691635,70.156311 153.908875,70.609932 
	C146.154968,70.908455 138.437881,72.162605 130.260727,72.961624 
z"/>
<path fill="#090D1F" opacity="1.000000" stroke="none" 
	d="
M162.910126,182.889526 
	C162.555237,182.341064 161.982086,181.685959 162.091949,181.178833 
	C165.927704,163.474762 163.231171,145.543579 163.959457,127.735184 
	C164.236801,120.953148 164.013412,114.151436 164.112549,107.360069 
	C164.122787,106.658508 164.779144,105.966377 165.542053,105.612679 
	C165.864258,124.100410 166.017014,142.251022 165.582794,160.387558 
	C165.401611,167.954300 163.971634,175.491119 163.109482,183.041550 
	C163.109482,183.041550 163.010300,182.851898 162.910126,182.889526 
z"/>
<path fill="#F5F4F6" opacity="1.000000" stroke="none" 
	d="
M163.459503,182.941803 
	C163.971634,175.491119 165.401611,167.954300 165.582794,160.387558 
	C166.017014,142.251022 165.864258,124.100410 165.914062,105.490067 
	C166.762421,106.182175 167.645111,107.339684 168.683197,109.122696 
	C169.198090,111.166504 169.557602,112.584816 169.917114,114.003128 
	C168.947372,117.280190 167.203888,120.542236 167.139938,123.836868 
	C166.840286,139.275070 167.227234,154.727661 166.854355,170.162689 
	C166.751709,174.411179 164.873184,178.616776 163.459503,182.941803 
z"/>
<path fill="#0F1320" opacity="1.000000" stroke="none" 
	d="
M177.133041,141.275803 
	C177.289719,141.367523 177.446396,141.459259 177.800446,141.042084 
	C177.663223,139.685913 177.328659,138.838684 176.994095,137.991440 
	C176.994095,137.991440 177.016907,137.498093 177.091614,137.262848 
	C178.037094,138.290085 179.382843,139.442200 179.705750,140.831955 
	C183.222015,155.965866 184.554749,171.159882 179.929642,186.326950 
	C179.235092,188.604614 177.888168,190.683334 176.496704,192.918152 
	C176.150375,192.982224 176.012527,192.534363 176.331848,192.097565 
	C182.423279,175.463593 182.354446,159.077011 178.243576,142.559341 
	C178.176743,142.253052 178.109909,141.946777 177.625305,141.462830 
	C177.207504,141.285141 177.133041,141.275803 177.133041,141.275803 
z"/>
<path fill="#141724" opacity="1.000000" stroke="none" 
	d="
M271.323120,114.384079 
	C277.781647,114.424774 284.572357,114.410545 291.294769,115.080780 
	C301.627136,116.110931 311.912567,117.611259 322.614807,118.934067 
	C323.463226,119.286102 323.914764,119.616173 324.717468,120.163116 
	C325.068695,120.379990 325.170410,120.753227 325.170410,120.753227 
	C318.490845,119.842224 311.826355,118.795380 305.128296,118.050766 
	C293.971741,116.810524 282.793671,115.763939 271.323120,114.384079 
z"/>
<path fill="#111522" opacity="1.000000" stroke="none" 
	d="
M69.017876,206.023026 
	C69.005013,205.848785 68.992149,205.674561 69.034851,204.862366 
	C69.385361,203.111252 69.739861,202.010071 69.966263,200.883163 
	C73.038727,185.590530 76.093430,170.294327 79.451385,154.999390 
	C80.148033,154.998306 80.545792,154.996841 80.943558,154.995361 
	C77.399734,172.097336 73.855911,189.199326 69.953308,206.541779 
	C69.354965,206.565155 69.162750,206.312073 69.017876,206.023026 
z"/>
<path fill="#101321" opacity="1.000000" stroke="none" 
	d="
M88.109604,117.040344 
	C90.591644,112.860260 93.073692,108.680176 95.763855,104.210739 
	C94.959068,106.469612 93.809875,108.973167 92.957672,111.574036 
	C89.820114,121.149681 86.800819,130.764023 83.676613,140.344116 
	C83.334816,141.392227 82.602547,142.313004 81.721268,143.016663 
	C83.630630,134.173782 85.870117,125.607063 88.109604,117.040344 
z"/>
<path fill="#F0EFF0" opacity="1.000000" stroke="none" 
	d="
M328.866272,124.138130 
	C329.909454,127.303596 332.088562,130.588333 331.771210,133.610947 
	C330.990143,141.050034 329.164886,148.391617 327.535828,155.722702 
	C326.992645,158.167130 325.770111,160.460632 324.500519,162.531067 
	C324.908844,158.887360 325.674744,155.535706 326.440643,152.184067 
	C326.440643,152.184067 326.283234,152.145905 326.567200,151.957001 
	C326.883789,150.512222 326.916443,149.256348 326.949127,148.000488 
	C326.949127,148.000488 327.026886,147.571228 327.274384,147.249496 
	C327.621948,146.628128 327.722046,146.328491 327.822144,146.028870 
	C327.907135,144.972519 327.992126,143.916183 328.436890,142.251358 
	C328.819885,135.807968 328.843079,129.973053 328.866272,124.138130 
z"/>
<path fill="#F2F2F2" opacity="1.000000" stroke="none" 
	d="
M125.002747,216.162598 
	C124.291214,217.106476 123.579674,218.050339 122.610992,219.335297 
	C129.722672,221.931229 136.694565,222.231186 143.826385,220.570587 
	C145.703735,220.133453 147.622818,219.875565 149.595840,219.997589 
	C149.567245,220.618790 149.465561,220.777756 149.363861,220.936707 
	C149.363861,220.936707 149.154953,220.829132 148.682526,220.931305 
	C140.003555,224.115707 131.668350,223.193222 123.066605,221.561035 
	C120.564323,220.467728 118.314537,219.646332 114.665741,218.314178 
	C119.109467,217.389236 122.056107,216.775925 125.002747,216.162598 
z"/>
<path fill="#23131D" opacity="1.000000" stroke="none" 
	d="
M207.182327,249.004227 
	C206.809982,256.694702 206.437637,264.385193 205.961273,272.536926 
	C202.393188,259.532745 204.869339,246.757217 210.683334,234.172989 
	C211.018402,234.015518 211.080246,234.073914 211.069717,234.407288 
	C211.047211,235.185425 211.035248,235.630188 211.023285,236.074936 
	C211.023270,236.074936 210.851105,236.270981 210.610504,236.625900 
	C210.221405,237.650467 210.072891,238.320114 209.924377,238.989761 
	C209.924377,238.989761 209.991821,238.981079 209.720490,239.226349 
	C208.693542,242.649139 207.937943,245.826691 207.182327,249.004227 
z"/>
<path fill="#EEEDEF" opacity="1.000000" stroke="none" 
	d="
M87.817398,117.243713 
	C85.870117,125.607063 83.630630,134.173782 81.360329,143.026459 
	C81.329514,143.312424 81.289619,143.691254 81.183731,144.008881 
	C80.846581,145.521545 80.615326,146.716614 80.384071,147.911667 
	C80.384071,147.911667 80.175949,147.868469 80.070145,147.878128 
	C80.300163,144.536880 80.187439,141.063156 81.064285,137.860367 
	C82.947426,130.981888 85.340744,124.243073 87.817398,117.243713 
z"/>
<path fill="#121624" opacity="1.000000" stroke="none" 
	d="
M125.302246,216.048874 
	C122.056107,216.775925 119.109467,217.389236 114.665741,218.314178 
	C118.314537,219.646332 120.564323,220.467728 122.809509,221.704010 
	C122.542496,222.404861 122.280090,222.690811 122.017677,222.976746 
	C119.471504,221.514420 116.925339,220.052094 114.379166,218.589752 
	C116.883423,217.446503 119.306984,216.047165 121.912758,215.226074 
	C125.032364,214.243073 128.307587,213.753952 131.724564,213.363525 
	C131.126831,214.070984 130.319946,214.465820 129.513062,214.860657 
	C129.513062,214.860657 129.206970,214.805847 128.809845,214.910309 
	C127.893730,215.239807 127.374748,215.464874 126.855759,215.689926 
	C126.437752,215.771667 126.019745,215.853409 125.302246,216.048874 
z"/>
<path fill="#25151F" opacity="1.000000" stroke="none" 
	d="
M206.025818,274.373260 
	C207.355164,282.751678 208.680908,291.591858 209.988586,300.434723 
	C210.228592,302.057709 210.395187,303.691498 210.225510,305.711426 
	C209.605576,306.079071 209.355789,306.055634 209.106018,306.032227 
	C208.076019,295.633484 207.046005,285.234711 206.025818,274.373260 
z"/>
<path fill="#0C101E" opacity="1.000000" stroke="none" 
	d="
M122.429245,223.001038 
	C122.280090,222.690811 122.542496,222.404861 123.061996,221.975952 
	C131.668350,223.193222 140.003555,224.115707 148.609863,221.023621 
	C144.950516,225.897415 139.102692,224.318680 134.007782,224.753464 
	C130.361160,225.064651 126.568382,223.662857 122.429245,223.001038 
z"/>
<path fill="#121624" opacity="1.000000" stroke="none" 
	d="
M170.069275,114.288071 
	C169.557602,112.584816 169.198090,111.166504 168.873199,109.368294 
	C170.151993,111.320831 171.756378,113.536217 172.560760,116.011581 
	C173.967606,120.340950 174.882950,124.830040 175.638397,129.522369 
	C173.626511,125.148438 171.980469,120.504333 170.334442,115.860229 
	C170.296768,115.431160 170.259094,115.002090 170.069275,114.288071 
z"/>
<path fill="#CE8F81" opacity="1.000000" stroke="none" 
	d="
M27.490232,300.168213 
	C30.793011,295.160492 34.448772,290.121826 38.432770,285.018951 
	C35.121738,290.015594 31.482477,295.076416 27.490232,300.168213 
z"/>
<path fill="#F0EFF0" opacity="1.000000" stroke="none" 
	d="
M322.096558,169.584671 
	C322.518097,170.037521 323.387451,170.746597 323.296204,170.906052 
	C320.431213,175.913116 317.472717,180.866669 314.175385,185.848694 
	C315.811737,181.824707 317.801178,177.780411 320.170593,173.242355 
	C320.694305,172.160538 320.838043,171.572479 320.981812,170.984406 
	C320.981812,170.984406 321.194031,170.796387 321.343689,170.536377 
	C321.683258,170.036072 321.884338,169.805496 322.096558,169.584671 
z"/>
<path fill="#F1F0F1" opacity="1.000000" stroke="none" 
	d="
M170.096649,116.071594 
	C171.980469,120.504333 173.626511,125.148438 175.621307,129.945740 
	C176.279465,131.810089 176.588882,133.521255 176.873169,135.620453 
	C176.148376,135.212967 175.088516,134.526993 174.807846,133.604050 
	C173.061096,127.859871 171.488907,122.062622 170.096649,116.071594 
z"/>
<path fill="#CE9082" opacity="1.000000" stroke="none" 
	d="
M51.918091,258.942505 
	C54.038952,253.081757 56.159817,247.220993 58.565689,241.157318 
	C57.231121,245.907318 55.611542,250.860245 53.690727,256.370239 
	C52.978199,257.659882 52.566902,258.392395 52.096710,259.078705 
	C52.037811,259.032471 51.918091,258.942505 51.918091,258.942505 
z"/>
<path fill="#2A1A24" opacity="1.000000" stroke="none" 
	d="
M68.839661,206.189514 
	C69.162750,206.312073 69.354965,206.565155 69.801994,206.902100 
	C68.193665,213.530716 66.377869,220.039505 64.227806,226.734497 
	C63.893551,226.920685 63.773960,226.821472 63.804619,226.471695 
	C63.869678,225.424179 63.904079,224.726456 63.938484,224.028717 
	C63.938480,224.028717 64.131065,223.677795 64.376968,223.183350 
	C65.164703,220.150146 65.706543,217.611359 66.248383,215.072586 
	C66.248383,215.072586 66.149757,215.051987 66.424881,214.846649 
	C67.120354,212.409302 67.540718,210.177292 68.073563,207.749786 
	C68.380959,207.289139 68.421898,207.002075 68.308876,206.693085 
	C68.308876,206.693085 68.661438,206.356003 68.839661,206.189514 
z"/>
<path fill="#131723" opacity="1.000000" stroke="none" 
	d="
M328.897491,124.127380 
	C328.843079,129.973053 328.819885,135.807968 328.455597,141.850220 
	C328.074524,136.387726 328.034515,130.717880 328.220459,124.557175 
	C328.446350,124.066299 328.886658,124.167267 328.886658,124.167267 
	C328.886658,124.167267 328.928711,124.116623 328.897491,124.127380 
z"/>
<path fill="#141726" opacity="1.000000" stroke="none" 
	d="
M322.074890,169.194885 
	C321.884338,169.805496 321.683258,170.036072 321.299591,170.401642 
	C322.651428,164.508606 324.197021,158.490295 326.091614,152.328033 
	C325.674744,155.535706 324.908844,158.887360 324.154205,162.624817 
	C323.461395,164.942123 322.757294,166.873611 322.074890,169.194885 
z"/>
<path fill="#CE8F81" opacity="1.000000" stroke="none" 
	d="
M12.576630,314.242676 
	C15.352556,311.287842 18.468531,308.238861 21.947384,305.252869 
	C19.179068,308.260071 16.047873,311.204315 12.576630,314.242676 
z"/>
<path fill="#F5F4F6" opacity="1.000000" stroke="none" 
	d="
M162.668579,184.075165 
	C162.038834,187.994476 162.175446,192.674149 156.850418,194.494537 
	C158.455338,190.994217 160.422379,187.636353 162.668579,184.075165 
z"/>
<path fill="#F5F4F7" opacity="1.000000" stroke="none" 
	d="
M235.839630,84.437233 
	C238.474518,86.582130 241.182373,89.071205 243.895798,91.922760 
	C241.238449,89.783974 238.575516,87.282684 235.839630,84.437233 
z"/>
<path fill="#2A1A24" opacity="1.000000" stroke="none" 
	d="
M61.981026,230.969528 
	C61.981026,230.969528 62.163357,230.731171 62.382633,230.332214 
	C62.992596,228.895996 63.383282,227.858734 63.773964,226.821472 
	C63.773960,226.821472 63.893551,226.920685 63.952309,226.971909 
	C62.616100,231.625671 61.221134,236.228226 59.480019,240.904617 
	C59.133869,240.978470 58.998806,240.532303 59.265701,240.091156 
	C59.724693,238.770554 59.916798,237.891098 60.108898,237.011658 
	C60.108894,237.011658 60.035561,237.023438 60.314667,236.828827 
	C60.752892,235.714951 60.912010,234.795654 61.071125,233.876373 
	C61.071125,233.876373 61.203487,233.727966 61.424782,233.412750 
	C61.757725,232.388199 61.869373,231.678864 61.981026,230.969528 
z"/>
<path fill="#F2F2F2" opacity="1.000000" stroke="none" 
	d="
M153.003021,201.009933 
	C151.132889,202.632416 149.262741,204.254883 147.106598,205.565826 
	C146.907425,204.844193 146.994247,204.434082 147.081070,204.023987 
	C148.840851,202.404648 150.600632,200.785309 152.673019,199.383591 
	C152.991425,200.070786 152.997223,200.540359 153.003021,201.009933 
z"/>
<path fill="#0C101E" opacity="1.000000" stroke="none" 
	d="
M162.864792,212.582520 
	C163.807114,210.775131 165.084946,209.068329 166.684174,207.317490 
	C165.737152,209.076675 164.468735,210.879898 162.864792,212.582520 
z"/>
<path fill="#CE8F81" opacity="1.000000" stroke="none" 
	d="
M4.015791,317.273865 
	C5.548800,317.000122 6.940508,317.011658 8.655331,316.997681 
	C7.873100,318.211945 6.767757,319.451721 5.390642,320.839600 
	C4.704077,319.844849 4.289284,318.701996 4.015791,317.273865 
z"/>
<path fill="#F5F4F6" opacity="1.000000" stroke="none" 
	d="
M153.313354,200.843414 
	C152.997223,200.540359 152.991425,200.070786 152.975128,199.249268 
	C153.933945,197.565918 154.903259,196.234543 156.109161,194.703430 
	C155.438385,196.561432 154.531036,198.619156 153.313354,200.843414 
z"/>
<path fill="#F2F2F2" opacity="1.000000" stroke="none" 
	d="
M154.024765,218.088501 
	C155.800049,216.732269 157.575333,215.376038 159.653442,214.249786 
	C159.956268,214.479767 159.792862,214.920151 159.792862,214.920151 
	C159.792862,214.920151 159.954117,214.947403 159.640488,214.981689 
	C159.014923,215.333267 158.702988,215.650543 158.391052,215.967834 
	C157.973083,216.124771 157.555130,216.281708 156.730026,216.750824 
	C155.998840,217.359634 155.674789,217.656265 155.350723,217.952881 
	C155.350723,217.952881 155.153488,217.847946 154.835510,217.939133 
	C154.517548,218.030319 154.024765,218.088501 154.024765,218.088501 
z"/>
<path fill="#F0EFEF" opacity="1.000000" stroke="none" 
	d="
M328.909424,123.780754 
	C328.886658,124.167267 328.446350,124.066299 328.222656,124.098419 
	C327.821716,123.868919 327.615570,123.632439 327.268799,122.918579 
	C326.791260,122.223763 326.425507,122.031479 326.059723,121.839203 
	C326.059723,121.839203 326.050598,121.951500 326.011230,121.686584 
	C325.694244,121.193466 325.416626,120.965256 325.139008,120.737053 
	C325.139008,120.737053 325.123199,120.803604 325.146790,120.778412 
	C325.170410,120.753227 325.068695,120.379990 324.998352,120.199738 
	C326.262726,121.144394 327.597443,122.269318 328.909424,123.780754 
z"/>
<path fill="#CE8F81" opacity="1.000000" stroke="none" 
	d="
M23.589268,304.173126 
	C24.349762,302.908173 25.403866,301.515747 26.822674,300.129974 
	C26.085878,301.439636 24.984379,302.742645 23.589268,304.173126 
z"/>
<path fill="#F0EFEF" opacity="1.000000" stroke="none" 
	d="
M244.458984,93.272751 
	C245.463333,94.227295 246.585388,95.463669 247.604401,97.060150 
	C246.526443,96.131699 245.551575,94.843147 244.458984,93.272751 
z"/>
<path fill="#F2F2F2" opacity="1.000000" stroke="none" 
	d="
M140.007187,210.056137 
	C138.462372,211.006683 136.917572,211.957214 135.146912,212.615906 
	C135.325378,211.909454 135.729691,211.494873 136.134018,211.080292 
	C136.134018,211.080292 136.038132,211.069305 136.362122,211.050018 
	C137.168655,210.699768 137.651169,210.368820 138.133682,210.037872 
	C138.133682,210.037872 138.583572,209.983704 139.041809,209.983337 
	C139.669067,210.007355 139.838120,210.031738 140.007187,210.056137 
z"/>
<path fill="#0F1423" opacity="1.000000" stroke="none" 
	d="
M33.851086,358.860901 
	C32.345348,358.341217 30.836924,357.461365 29.179504,356.288940 
	C30.636475,356.831177 32.242435,357.665985 33.851086,358.860901 
z"/>
<path fill="#101321" opacity="1.000000" stroke="none" 
	d="
M80.969101,154.602112 
	C80.545792,154.996841 80.148033,154.998306 79.408524,154.617447 
	C79.339905,152.475128 79.613022,150.715164 79.886139,148.955185 
	C79.886139,148.955185 79.984741,149.133011 80.079956,149.097198 
	C80.448334,150.777206 80.721489,152.493042 80.969101,154.602112 
z"/>
<path fill="#F5F4F7" opacity="1.000000" stroke="none" 
	d="
M231.990509,79.984810 
	C232.945663,80.889969 233.900803,81.795128 234.859482,83.046059 
	C233.950333,83.144379 233.037674,82.896935 232.002380,82.131226 
	C231.879776,81.612976 231.904144,81.224792 231.929932,80.915085 
	C231.967300,80.398529 231.978897,80.191673 231.990509,79.984810 
z"/>
<path fill="#EFEEEF" opacity="1.000000" stroke="none" 
	d="
M113.342468,82.716927 
	C113.856041,81.854431 114.711700,80.980042 115.905144,80.101303 
	C115.390137,80.966316 114.537354,81.835678 113.342468,82.716927 
z"/>
<path fill="#CE9082" opacity="1.000000" stroke="none" 
	d="
M49.878510,263.914825 
	C50.365761,262.389496 50.853012,260.864136 51.629173,259.140656 
	C51.918091,258.942505 52.037811,259.032471 52.070610,259.401672 
	C52.057106,260.200592 52.010803,260.630341 51.964500,261.060059 
	C51.964500,261.060059 51.800240,261.223267 51.583439,261.554504 
	C51.180363,262.580444 50.994087,263.275146 50.807816,263.969818 
	C50.807816,263.969818 50.957676,263.893311 50.699860,263.870972 
	C50.442039,263.848633 50.047817,264.040436 50.006187,264.008118 
	C49.964554,263.975769 49.878506,263.914825 49.878510,263.914825 
z"/>
<path fill="#EFEEEF" opacity="1.000000" stroke="none" 
	d="
M117.355530,79.705467 
	C117.914581,78.823097 118.830475,77.957367 120.129959,77.121078 
	C119.579819,78.007729 118.646095,78.864914 117.355530,79.705467 
z"/>
<path fill="#F0EFF0" opacity="1.000000" stroke="none" 
	d="
M313.539978,185.890991 
	C313.251740,186.833145 312.636017,187.843567 311.705811,188.919388 
	C311.998352,187.976273 312.605438,186.967758 313.539978,185.890991 
z"/>
<path fill="#151926" opacity="1.000000" stroke="none" 
	d="
M221.204544,76.019943 
	C222.458725,76.238853 223.667542,76.790894 225.027802,77.643745 
	C223.839218,77.414055 222.499207,76.883560 221.204544,76.019943 
z"/>
<path fill="#25151F" opacity="1.000000" stroke="none" 
	d="
M52.340744,260.954132 
	C52.010803,260.630341 52.057106,260.200592 52.129509,259.447906 
	C52.566902,258.392395 52.978199,257.659882 53.642990,256.721680 
	C53.503319,257.960083 53.110153,259.404144 52.340744,260.954132 
z"/>
<path fill="#23131D" opacity="1.000000" stroke="none" 
	d="
M213.035309,231.092819 
	C213.035309,231.092819 212.862274,231.277802 212.609070,231.618927 
	C212.186874,232.632690 212.017899,233.305313 211.848907,233.977921 
	C211.848892,233.977921 211.949326,233.934296 211.715332,233.935272 
	C211.481354,233.936249 211.080246,234.073914 211.080246,234.073914 
	C211.080246,234.073914 211.018402,234.015518 210.987259,233.986237 
	C211.397507,232.679352 211.838913,231.401733 212.629120,230.324371 
	C212.997086,230.714035 213.016205,230.903427 213.035309,231.092819 
z"/>
<path fill="#F2F2F2" opacity="1.000000" stroke="none" 
	d="
M129.915558,214.892090 
	C130.319946,214.465820 131.126831,214.070984 132.156097,213.406311 
	C132.378464,213.136490 132.721176,213.188309 133.108459,213.101715 
	C133.665298,213.030579 133.834839,213.046021 134.004364,213.061478 
	C132.775604,213.682159 131.546829,214.302841 129.915558,214.892090 
z"/>
<path fill="#121624" opacity="1.000000" stroke="none" 
	d="
M140.126190,209.935242 
	C139.838120,210.031738 139.669067,210.007355 139.255219,209.907242 
	C139.832733,209.223938 140.655075,208.616348 141.698547,208.314743 
	C141.473373,209.035370 141.027069,209.450012 140.580780,209.864655 
	C140.580780,209.864655 140.245209,209.814331 140.126190,209.935242 
z"/>
<path fill="#F1F0F1" opacity="1.000000" stroke="none" 
	d="
M170.479065,202.977539 
	C170.529984,202.407883 170.820663,201.715271 171.422714,201.012970 
	C171.395676,201.620377 171.057251,202.237473 170.479065,202.977539 
z"/>
<path fill="#121624" opacity="1.000000" stroke="none" 
	d="
M134.128082,212.938293 
	C133.834839,213.046021 133.665298,213.030579 133.241348,212.990479 
	C133.797119,212.320969 134.607300,211.676117 135.775742,211.055786 
	C135.729691,211.494873 135.325378,211.909454 134.760742,212.578949 
	C134.600418,212.833847 134.251785,212.815109 134.128082,212.938293 
z"/>
<path fill="#F1F0F1" opacity="1.000000" stroke="none" 
	d="
M172.378723,200.044556 
	C172.450012,199.194626 172.820175,198.182770 173.526672,197.081665 
	C173.467865,197.955826 173.072723,198.919235 172.378723,200.044556 
z"/>
<path fill="#F2F2F2" opacity="1.000000" stroke="none" 
	d="
M140.968079,209.890778 
	C141.027069,209.450012 141.473373,209.035370 142.048904,208.338562 
	C142.565155,208.021683 142.952164,207.986984 143.626831,207.903915 
	C143.061432,208.542664 142.208405,209.229767 140.968079,209.890778 
z"/>
<path fill="#121624" opacity="1.000000" stroke="none" 
	d="
M146.731979,204.091736 
	C146.994247,204.434082 146.907425,204.844193 146.749542,205.560577 
	C146.329910,205.977173 145.981323,206.087479 145.376465,206.301788 
	C145.541092,205.657013 145.961990,204.908264 146.731979,204.091736 
z"/>
<path fill="#101321" opacity="1.000000" stroke="none" 
	d="
M80.745667,147.744431 
	C80.615326,146.716614 80.846581,145.521545 81.357285,144.087341 
	C81.460243,145.091187 81.283760,146.334183 80.745667,147.744431 
z"/>
<path fill="#141726" opacity="1.000000" stroke="none" 
	d="
M326.683594,148.270966 
	C326.916443,149.256348 326.883789,150.512222 326.575684,152.037537 
	C326.339539,151.051804 326.378784,149.796616 326.683594,148.270966 
z"/>
<path fill="#23131D" opacity="1.000000" stroke="none" 
	d="
M216.224060,224.077942 
	C216.487732,223.990265 216.713135,224.305939 216.537506,224.616791 
	C216.204071,225.273849 216.046265,225.620056 215.888458,225.966278 
	C215.888458,225.966278 215.964111,225.957504 215.742706,225.979919 
	C215.521286,226.002350 215.109085,226.106522 215.075653,226.078003 
	C215.042221,226.049500 214.970505,225.998688 214.970505,225.998688 
	C215.300461,225.387665 215.630417,224.776627 216.224060,224.077942 
z"/>
<path fill="#151926" opacity="1.000000" stroke="none" 
	d="
M228.060577,79.508698 
	C227.995300,79.210510 228.400009,79.163536 228.603607,79.170471 
	C228.807205,79.177399 228.831467,79.119987 228.937454,79.393707 
	C229.392776,80.079109 229.742096,80.490784 230.072449,80.926147 
	C230.053452,80.949829 230.021454,81.001434 230.021454,81.001434 
	C229.389587,80.603249 228.757736,80.205063 228.060577,79.508698 
z"/>
<path fill="#CE9082" opacity="1.000000" stroke="none" 
	d="
M49.036232,266.069000 
	C49.174156,265.492981 49.312077,264.916931 49.664253,264.127869 
	C49.878506,263.914825 49.964554,263.975769 50.019581,264.258057 
	C50.086494,264.706879 50.098377,264.873352 50.110256,265.039795 
	C50.110256,265.039795 49.906620,265.282776 49.689728,265.557861 
	C49.472836,265.832977 49.036232,266.069000 49.036232,266.069000 
z"/>
<path fill="#25151F" opacity="1.000000" stroke="none" 
	d="
M51.106773,263.751648 
	C50.994087,263.275146 51.180363,262.580444 51.647305,261.651062 
	C51.753891,262.122070 51.579811,262.827759 51.106773,263.751648 
z"/>
<path fill="#0C101E" opacity="1.000000" stroke="none" 
	d="
M161.220840,213.912735 
	C161.291199,213.543350 161.689743,213.142471 162.340607,212.596573 
	C162.244949,212.928116 161.896988,213.404663 161.220840,213.912735 
z"/>
<path fill="#25151F" opacity="1.000000" stroke="none" 
	d="
M47.998695,269.977234 
	C47.830612,270.537659 47.662533,271.098083 47.216488,271.799805 
	C46.938519,271.941071 46.851460,271.855835 46.894753,271.547699 
	C46.984509,270.828217 47.030972,270.416901 47.077435,270.005554 
	C47.077435,270.005554 47.010010,270.018494 47.222725,269.988159 
	C47.435436,269.957794 47.825394,269.834656 47.867554,269.871704 
	C47.909718,269.908783 47.998695,269.977234 47.998695,269.977234 
z"/>
<path fill="#141726" opacity="1.000000" stroke="none" 
	d="
M320.742981,171.167252 
	C320.838043,171.572479 320.694305,172.160538 320.285034,172.906601 
	C320.181030,172.493088 320.342560,171.921600 320.742981,171.167252 
z"/>
<path fill="#25151F" opacity="1.000000" stroke="none" 
	d="
M49.020077,266.042786 
	C49.036232,266.069000 49.472836,265.832977 49.692703,265.716339 
	C49.780090,266.254242 49.647606,266.908813 49.222038,267.748383 
	C48.928959,267.933411 48.850323,267.856964 48.887749,267.546814 
	C48.970959,266.823914 49.016739,266.411163 49.062515,265.998413 
	C49.062515,265.998413 49.003922,266.016541 49.020077,266.042786 
z"/>
<path fill="#25151F" opacity="1.000000" stroke="none" 
	d="
M48.967747,267.972168 
	C48.833694,268.558868 48.660854,269.106842 48.243355,269.816010 
	C47.998695,269.977234 47.909718,269.908783 47.910286,269.567200 
	C47.973442,268.821136 48.036034,268.416687 48.098625,268.012207 
	C48.098625,268.012207 48.027935,268.035522 48.241798,268.009399 
	C48.455658,267.983276 48.850323,267.856964 48.850323,267.856964 
	C48.850323,267.856964 48.928959,267.933411 48.967747,267.972168 
z"/>
<path fill="#D2907F" opacity="1.000000" stroke="none" 
	d="
M213.265396,230.896454 
	C213.016205,230.903427 212.997086,230.714035 212.976379,230.238510 
	C212.974823,229.952393 213.143936,229.790314 213.346710,229.552139 
	C213.707779,229.214066 213.866074,229.114182 214.024384,229.014282 
	C213.848099,229.576218 213.671783,230.138153 213.265396,230.896454 
z"/>
<path fill="#141724" opacity="1.000000" stroke="none" 
	d="
M268.236023,113.380081 
	C268.639496,113.238647 269.248413,113.307022 269.995972,113.664932 
	C269.570251,113.832954 269.005829,113.711418 268.236023,113.380081 
z"/>
<path fill="#151926" opacity="1.000000" stroke="none" 
	d="
M231.904144,81.224792 
	C231.904144,81.224792 231.879776,81.612976 231.815002,81.796310 
	C231.263550,81.804878 230.776855,81.630112 230.155807,81.228394 
	C230.021454,81.001434 230.053452,80.949829 230.374481,80.980484 
	C231.098404,81.082352 231.501266,81.153572 231.904144,81.224792 
z"/>
<path fill="#25151F" opacity="1.000000" stroke="none" 
	d="
M46.981712,271.984009 
	C46.844273,272.573090 46.663639,273.119263 46.201134,273.793884 
	C45.919254,273.922333 45.830025,273.834778 45.872063,273.530090 
	C45.973804,272.819916 46.033512,272.414398 46.093220,272.008911 
	C46.093220,272.008911 46.022274,272.026611 46.235283,271.996979 
	C46.448292,271.967346 46.851460,271.855835 46.851460,271.855835 
	C46.851460,271.855835 46.938519,271.941071 46.981712,271.984009 
z"/>
<path fill="#23131D" opacity="1.000000" stroke="none" 
	d="
M213.920288,227.945511 
	C214.111618,227.406586 214.302948,226.867645 214.732391,226.163696 
	C214.970505,225.998688 215.042221,226.049500 215.017792,226.380463 
	C214.918945,227.113876 214.844543,227.516296 214.770142,227.918732 
	C214.770157,227.918732 214.911591,227.887146 214.664368,227.860504 
	C214.417145,227.833862 214.004150,228.003418 213.983826,227.988022 
	C213.963486,227.972626 213.920273,227.945511 213.920288,227.945511 
z"/>
<path fill="#25151F" opacity="1.000000" stroke="none" 
	d="
M45.963486,273.966492 
	C45.836533,274.566223 45.665344,275.121826 45.193928,275.788818 
	C44.893700,275.900238 44.760841,275.765656 44.814438,275.471375 
	C44.933899,274.784546 44.999767,274.391998 45.065632,273.999481 
	C45.065628,273.999481 45.001110,274.010223 45.214027,273.976715 
	C45.426945,273.943207 45.830025,273.834778 45.830025,273.834778 
	C45.830025,273.834778 45.919254,273.922333 45.963486,273.966492 
z"/>
<path fill="#0C101E" opacity="1.000000" stroke="none" 
	d="
M152.033417,219.901703 
	C152.221817,219.573044 152.755508,219.239197 153.610992,218.823685 
	C153.414780,219.126862 152.896744,219.511703 152.033417,219.901703 
z"/>
<path fill="#121624" opacity="1.000000" stroke="none" 
	d="
M137.812820,210.048737 
	C137.651169,210.368820 137.168655,210.699768 136.363831,211.098236 
	C136.525009,210.797043 137.008484,210.428329 137.812820,210.048737 
z"/>
<path fill="#CE8F81" opacity="1.000000" stroke="none" 
	d="
M22.490341,305.216187 
	C22.406015,304.990112 22.576920,304.667236 23.027058,304.278076 
	C23.119385,304.514313 22.932478,304.816864 22.490341,305.216187 
z"/>
<path fill="#141726" opacity="1.000000" stroke="none" 
	d="
M327.642731,146.174011 
	C327.722046,146.328491 327.621948,146.628128 327.280243,147.031433 
	C327.131134,146.837601 327.272705,146.565613 327.642731,146.174011 
z"/>
<path fill="#141724" opacity="1.000000" stroke="none" 
	d="
M326.165314,122.093033 
	C326.425507,122.031479 326.791260,122.223763 327.130249,122.727859 
	C326.825897,122.808731 326.548401,122.577789 326.165314,122.093033 
z"/>
<path fill="#141724" opacity="1.000000" stroke="none" 
	d="
M325.224274,121.002029 
	C325.416626,120.965256 325.694244,121.193466 326.067535,121.684601 
	C325.878662,121.720688 325.594086,121.493851 325.224274,121.002029 
z"/>
<path fill="#301D2A" opacity="1.000000" stroke="none" 
	d="
M209.301224,306.237610 
	C209.355789,306.055634 209.605576,306.079071 210.225433,306.183289 
	C210.595520,306.264099 210.569412,306.323151 210.580933,306.352264 
	C210.227097,306.401917 209.861771,306.422455 209.301224,306.237610 
z"/>
<path fill="#CE8F81" opacity="1.000000" stroke="none" 
	d="
M11.368515,315.135315 
	C11.312536,314.910309 11.523470,314.615479 12.012939,314.273254 
	C12.072793,314.505737 11.854110,314.785645 11.368515,315.135315 
z"/>
<path fill="#CE8F81" opacity="1.000000" stroke="none" 
	d="
M10.303410,316.023621 
	C10.254064,315.821808 10.465277,315.541351 10.935513,315.182678 
	C10.984345,315.384644 10.774157,315.664856 10.303410,316.023621 
z"/>
<path fill="#CE8F81" opacity="1.000000" stroke="none" 
	d="
M9.229310,316.913605 
	C9.190664,316.719879 9.405903,316.465271 9.862200,316.128662 
	C9.896570,316.315369 9.689883,316.584015 9.229310,316.913605 
z"/>
<path fill="#151926" opacity="1.000000" stroke="none" 
	d="
M226.152924,78.334351 
	C226.313614,78.251175 226.622955,78.361145 227.052917,78.711273 
	C226.852570,78.872421 226.561905,78.731102 226.152924,78.334351 
z"/>
<path fill="#25151F" opacity="1.000000" stroke="none" 
	d="
M44.958477,275.969116 
	C44.908600,276.355164 44.716007,276.614441 44.233944,276.665894 
	C44.023327,276.340332 44.024242,276.164703 44.025158,275.989105 
	C44.025158,275.989105 43.986324,275.997681 44.180561,275.938660 
	C44.374798,275.879669 44.760841,275.765656 44.760841,275.765656 
	C44.760841,275.765656 44.893700,275.900238 44.958477,275.969116 
z"/>
<path fill="#CE9082" opacity="1.000000" stroke="none" 
	d="
M43.788288,276.156403 
	C44.024242,276.164703 44.023327,276.340332 44.016834,276.779877 
	C44.011257,277.043762 43.611042,277.256683 43.395737,277.326019 
	C43.304092,277.038147 43.427757,276.680908 43.788288,276.156403 
z"/>
<path fill="#25151F" opacity="1.000000" stroke="none" 
	d="
M50.311630,264.875427 
	C50.098377,264.873352 50.086494,264.706879 50.061211,264.290405 
	C50.047817,264.040436 50.442039,263.848633 50.655937,263.799225 
	C50.750889,264.070251 50.631947,264.390656 50.311630,264.875427 
z"/>
<path fill="#F1F0F1" opacity="1.000000" stroke="none" 
	d="
M174.313675,196.068298 
	C174.123535,195.842789 174.269455,195.555130 174.687164,195.157684 
	C174.777008,195.327286 174.673935,195.646698 174.313675,196.068298 
z"/>
<path fill="#23131D" opacity="1.000000" stroke="none" 
	d="
M214.013641,229.007843 
	C213.866074,229.114182 213.707779,229.214066 213.299789,229.444824 
	C213.186356,229.177063 213.322617,228.778412 213.689575,228.162643 
	C213.920273,227.945511 213.963486,227.972626 213.985870,228.242218 
	C214.012619,228.681259 214.016983,228.850677 214.021332,229.020081 
	C214.021332,229.020081 214.002899,229.001389 214.013641,229.007843 
z"/>
<path fill="#F1F0F1" opacity="1.000000" stroke="none" 
	d="
M168.266876,206.846191 
	C168.117905,206.579147 168.267532,206.382202 168.619415,206.118118 
	C168.690826,206.304886 168.605423,206.593323 168.266876,206.846191 
z"/>
<path fill="#F2F2F2" opacity="1.000000" stroke="none" 
	d="
M144.745850,207.069183 
	C144.778549,207.268021 144.547302,207.509338 144.077576,207.839661 
	C144.053360,207.656326 144.267639,207.383987 144.745850,207.069183 
z"/>
<path fill="#0C101E" opacity="1.000000" stroke="none" 
	d="
M149.662140,220.849213 
	C149.465561,220.777756 149.567245,220.618790 149.840988,220.234955 
	C150.013031,220.010071 150.497208,220.049225 150.738525,220.077026 
	C150.640045,220.323792 150.300247,220.542755 149.662140,220.849213 
z"/>
<path fill="#0C101E" opacity="1.000000" stroke="none" 
	d="
M153.963318,218.291611 
	C154.024765,218.088501 154.517548,218.030319 154.765930,218.026520 
	C154.761520,218.257065 154.508759,218.491409 154.004242,218.808868 
	C153.752502,218.891968 153.901871,218.494720 153.963318,218.291611 
z"/>
<path fill="#0C101E" opacity="1.000000" stroke="none" 
	d="
M155.670288,217.847290 
	C155.674789,217.656265 155.998840,217.359634 156.647339,216.973572 
	C156.644485,217.169998 156.317169,217.455841 155.670288,217.847290 
z"/>
<path fill="#0C101E" opacity="1.000000" stroke="none" 
	d="
M158.707550,215.843109 
	C158.702988,215.650543 159.014923,215.333267 159.647675,214.900238 
	C159.653687,215.095810 159.338882,215.407104 158.707550,215.843109 
z"/>
<path fill="#0C101E" opacity="1.000000" stroke="none" 
	d="
M160.043762,214.817322 
	C159.792862,214.920151 159.956268,214.479767 160.035751,214.258698 
	C160.115234,214.037643 160.542862,213.985550 160.753006,213.937347 
	C160.740326,214.164261 160.517502,214.439377 160.043762,214.817322 
z"/>
<path fill="#EEEDEF" opacity="1.000000" stroke="none" 
	d="
M79.521996,149.034241 
	C79.613022,150.715164 79.339905,152.475128 79.109650,154.617065 
	C76.093430,170.294327 73.038727,185.590530 69.966263,200.883163 
	C69.739861,202.010071 69.385361,203.111252 68.975555,204.607086 
	C68.404503,203.749756 67.365944,202.396835 67.581100,201.286942 
	C70.070602,188.445251 72.669548,175.623093 75.421021,162.834808 
	C76.416672,158.207199 77.898094,153.684097 79.521996,149.034241 
z"/>
<path fill="#DC7F65" opacity="1.000000" stroke="none" 
	d="
M67.917099,206.521454 
	C68.421898,207.002075 68.380959,207.289139 67.751411,207.758759 
	C66.887932,207.980270 66.459099,207.997284 66.030266,208.014297 
	C45.670200,208.010315 25.310135,208.006332 4.479949,207.759598 
	C4.009829,207.516846 4.016161,207.021378 4.483740,207.012817 
	C23.034834,207.002121 41.118439,207.024658 59.201740,206.961746 
	C61.128662,206.955048 63.053852,206.448914 64.979843,206.174469 
	C65.828339,206.232910 66.676826,206.291367 67.917099,206.521454 
z"/>
<path fill="#D2917D" opacity="1.000000" stroke="none" 
	d="
M64.517883,206.102173 
	C63.053852,206.448914 61.128662,206.955048 59.201740,206.961746 
	C41.118439,207.024658 23.034834,207.002121 4.203366,206.993332 
	C3.268374,206.974045 3.081334,206.965714 2.894294,206.957367 
	C2.894294,206.957367 2.863244,206.472885 2.921120,206.237228 
	C23.337973,206.011017 43.696949,206.020447 64.517883,206.102173 
z"/>
<path fill="#EFEEEF" opacity="1.000000" stroke="none" 
	d="
M231.929932,80.915085 
	C231.501266,81.153572 231.098404,81.082352 230.393478,80.956802 
	C229.742096,80.490784 229.392776,80.079109 228.919144,79.416267 
	C229.698410,79.273056 230.601990,79.381004 231.748032,79.736877 
	C231.978897,80.191673 231.967300,80.398529 231.929932,80.915085 
z"/>
<path fill="#D27359" opacity="1.000000" stroke="none" 
	d="
M380.920898,207.483521 
	C381.093567,206.983383 381.306458,206.948898 381.839905,206.866531 
	C382.160400,206.818649 382.159180,206.866531 382.078552,207.360596 
	C382.010010,241.914597 382.022095,275.974548 382.034180,310.034485 
	C382.034210,310.034485 382.026276,310.502411 381.957092,310.726013 
	C381.592133,309.033173 381.042328,307.117310 381.038452,305.200287 
	C380.972412,272.783325 380.974274,240.366226 380.920898,207.483521 
z"/>
<path fill="#D2907F" opacity="1.000000" stroke="none" 
	d="
M207.384827,249.002747 
	C207.937943,245.826691 208.693542,242.649139 209.702438,239.197540 
	C209.474533,242.100220 208.993332,245.276962 208.252213,248.725922 
	C207.992294,248.998108 207.587311,249.001251 207.384827,249.002747 
z"/>
<path fill="#D2907F" opacity="1.000000" stroke="none" 
	d="
M210.197769,238.769928 
	C210.072891,238.320114 210.221405,237.650467 210.639236,236.753143 
	C210.762756,237.200348 210.616943,237.875229 210.197769,238.769928 
z"/>
<path fill="#D2907F" opacity="1.000000" stroke="none" 
	d="
M211.069717,234.407288 
	C211.080246,234.073914 211.481354,233.936249 211.687836,233.887939 
	C211.761536,234.442276 211.628754,235.044952 211.259628,235.861267 
	C211.035248,235.630188 211.047211,235.185425 211.069717,234.407288 
z"/>
<path fill="#D2907F" opacity="1.000000" stroke="none" 
	d="
M212.137543,233.769073 
	C212.017899,233.305313 212.186874,232.632690 212.636627,231.742554 
	C212.753647,232.203445 212.589905,232.881821 212.137543,233.769073 
z"/>
<path fill="#D2907F" opacity="1.000000" stroke="none" 
	d="
M215.057053,227.777969 
	C214.844543,227.516296 214.918945,227.113876 215.051208,226.408981 
	C215.109085,226.106522 215.521286,226.002350 215.726166,225.945618 
	C215.735367,226.471649 215.539673,227.054428 215.057053,227.777969 
z"/>
<path fill="#D2907F" opacity="1.000000" stroke="none" 
	d="
M214.246216,228.874893 
	C214.016983,228.850677 214.012619,228.681259 214.006210,228.257629 
	C214.004150,228.003418 214.417145,227.833862 214.636917,227.793457 
	C214.728149,228.078598 214.599609,228.404144 214.246216,228.874893 
z"/>
<path fill="#D2907F" opacity="1.000000" stroke="none" 
	d="
M216.135925,225.819748 
	C216.046265,225.620056 216.204071,225.273849 216.618454,224.793030 
	C216.711151,224.996689 216.547272,225.334961 216.135925,225.819748 
z"/>
<path fill="#DD9C8B" opacity="1.000000" stroke="none" 
	d="
M382.230774,309.673950 
	C382.022095,275.974548 382.010010,241.914597 382.075470,207.384277 
	C382.389343,208.022614 382.831360,209.131180 382.832031,210.240005 
	C382.850922,242.282150 382.829010,274.324310 382.791565,306.366425 
	C382.790405,307.348907 382.554047,308.331085 382.230774,309.673950 
z"/>
<path fill="#D0745C" opacity="1.000000" stroke="none" 
	d="
M2.861289,207.428680 
	C3.081334,206.965714 3.268374,206.974045 3.735788,207.001892 
	C4.016161,207.021378 4.009829,207.516846 4.012236,207.764740 
	C4.007024,240.941711 4.004385,273.870819 3.978393,306.799896 
	C3.976959,308.615967 3.781596,310.431915 3.447038,312.581055 
	C3.129776,312.190338 3.041978,311.466461 2.931446,310.116150 
	C2.854352,309.318359 2.799992,309.147095 2.745631,308.975830 
	C2.738078,308.546234 2.730524,308.116669 2.645100,307.373474 
	C2.664409,298.761688 2.835385,290.463623 2.844915,282.165314 
	C2.873344,257.410248 2.838445,232.655106 2.861289,207.428680 
z"/>
<path fill="#F6DACC" opacity="1.000000" stroke="none" 
	d="
M2.629041,309.092224 
	C2.799992,309.147095 2.854352,309.318359 2.869903,309.756409 
	C2.494863,309.830414 2.388649,309.558899 2.629041,309.092224 
z"/>
<path fill="#D2917D" opacity="1.000000" stroke="none" 
	d="
M65.911484,215.264038 
	C65.706543,217.611359 65.164703,220.150146 64.375687,222.983215 
	C64.610535,220.670181 65.092560,218.062836 65.911484,215.264038 
z"/>
<path fill="#D2917D" opacity="1.000000" stroke="none" 
	d="
M66.027756,208.457520 
	C66.459099,207.997284 66.887932,207.980270 67.638916,207.954285 
	C67.540718,210.177292 67.120354,212.409302 66.427315,214.896957 
	C66.111504,213.068665 66.068375,210.984711 66.027756,208.457520 
z"/>
<path fill="#D2917D" opacity="1.000000" stroke="none" 
	d="
M63.804623,226.471695 
	C63.383282,227.858734 62.992596,228.895996 62.364731,230.183228 
	C62.514328,228.427307 62.901104,226.421417 63.613182,224.222107 
	C63.904079,224.726456 63.869678,225.424179 63.804623,226.471695 
z"/>
<path fill="#D2917D" opacity="1.000000" stroke="none" 
	d="
M60.811150,234.120178 
	C60.912010,234.795654 60.752892,235.714951 60.329231,236.863007 
	C60.226849,236.182510 60.389015,235.273254 60.811150,234.120178 
z"/>
<path fill="#D2917D" opacity="1.000000" stroke="none" 
	d="
M59.831429,237.215637 
	C59.916798,237.891098 59.724693,238.770554 59.260235,239.858139 
	C59.176571,239.184067 59.365265,238.301849 59.831429,237.215637 
z"/>
<path fill="#CE9082" opacity="1.000000" stroke="none" 
	d="
M46.894753,271.547699 
	C46.851460,271.855835 46.448292,271.967346 46.248898,272.030884 
	C46.217999,271.512238 46.386497,270.930054 46.816216,270.176697 
	C47.030972,270.416901 46.984509,270.828217 46.894753,271.547699 
z"/>
<path fill="#CE9082" opacity="1.000000" stroke="none" 
	d="
M45.872063,273.530090 
	C45.830025,273.834778 45.426945,273.943207 45.227890,274.006348 
	C45.209747,273.495148 45.390656,272.920807 45.832390,272.177673 
	C46.033512,272.414398 45.973804,272.819916 45.872063,273.530090 
z"/>
<path fill="#CE9082" opacity="1.000000" stroke="none" 
	d="
M48.887749,267.546814 
	C48.850323,267.856964 48.455658,267.983276 48.257225,268.043274 
	C48.223434,267.521210 48.388081,266.939148 48.807625,266.177734 
	C49.016739,266.411163 48.970959,266.823914 48.887749,267.546814 
z"/>
<path fill="#CE9082" opacity="1.000000" stroke="none" 
	d="
M47.834785,268.178955 
	C48.036034,268.416687 47.973442,268.821136 47.868122,269.530151 
	C47.825394,269.834656 47.435436,269.957794 47.239899,270.017883 
	C47.219891,269.500549 47.395420,268.923126 47.834785,268.178955 
z"/>
<path fill="#D2917D" opacity="1.000000" stroke="none" 
	d="
M61.724983,231.222168 
	C61.869373,231.678864 61.757725,232.388199 61.365246,233.333115 
	C61.212593,232.870728 61.340771,232.172775 61.724983,231.222168 
z"/>
<path fill="#CE9082" opacity="1.000000" stroke="none" 
	d="
M44.814438,275.471375 
	C44.760841,275.765656 44.374798,275.879669 44.188766,275.956787 
	C44.187477,275.469025 44.372219,274.904144 44.811302,274.169373 
	C44.999767,274.391998 44.933899,274.784546 44.814438,275.471375 
z"/>
<path fill="#F1F0F1" opacity="1.000000" stroke="none" 
	d="
M177.966187,142.899796 
	C182.354446,159.077011 182.423279,175.463593 176.336472,191.863312 
	C177.014694,182.045242 178.379364,172.042557 178.863815,161.997406 
	C179.163757,155.778381 178.126053,149.494827 177.966187,142.899796 
z"/>
<path fill="#F1F0F1" opacity="1.000000" stroke="none" 
	d="
M176.749359,138.250153 
	C177.328659,138.838684 177.663223,139.685913 177.952576,140.816193 
	C177.439789,140.235779 176.972214,139.372330 176.749359,138.250153 
z"/>
<path fill="#F2F2F2" opacity="1.000000" stroke="none" 
	d="
M127.018379,215.933685 
	C127.374748,215.464874 127.893730,215.239807 128.709045,215.028687 
	C128.397232,215.420883 127.789116,215.799179 127.018379,215.933685 
z"/>
<path fill="#F1F0F1" opacity="1.000000" stroke="none" 
	d="
M177.065140,141.493500 
	C177.133041,141.275803 177.207504,141.285141 177.181747,141.306671 
	C177.103073,141.455872 177.050156,141.583542 177.065140,141.493500 
z"/>
</svg>